<mxfile host="app.diagrams.net" agent="Mozilla/5.0 (Windows NT 10.0; Win64; x64) AppleWebKit/537.36 (KHTML, like Gecko) Chrome/130.0.0.0 Safari/537.36" version="24.7.17">
  <diagram name="Page-1" id="tTbbzNrf_faBUHqJ_6MZ">
    <mxGraphModel dx="1331" dy="742" grid="1" gridSize="10" guides="1" tooltips="1" connect="1" arrows="1" fold="1" page="1" pageScale="1" pageWidth="827" pageHeight="1169" math="0" shadow="0">
      <root>
        <mxCell id="0" />
        <mxCell id="1" parent="0" />
        <mxCell id="uVN40vrKhelWlKV7v6ry-3" value="" style="edgeStyle=orthogonalEdgeStyle;rounded=0;orthogonalLoop=1;jettySize=auto;html=1;" edge="1" parent="1" source="uVN40vrKhelWlKV7v6ry-1" target="uVN40vrKhelWlKV7v6ry-2">
          <mxGeometry relative="1" as="geometry" />
        </mxCell>
        <mxCell id="uVN40vrKhelWlKV7v6ry-1" value="" style="ellipse;whiteSpace=wrap;html=1;" vertex="1" parent="1">
          <mxGeometry x="30" y="20" width="80" height="40" as="geometry" />
        </mxCell>
        <mxCell id="uVN40vrKhelWlKV7v6ry-5" value="" style="edgeStyle=orthogonalEdgeStyle;rounded=0;orthogonalLoop=1;jettySize=auto;html=1;" edge="1" parent="1" source="uVN40vrKhelWlKV7v6ry-2" target="uVN40vrKhelWlKV7v6ry-4">
          <mxGeometry relative="1" as="geometry" />
        </mxCell>
        <mxCell id="uVN40vrKhelWlKV7v6ry-2" value="times played = 0&lt;div&gt;player number = 0&amp;nbsp;&lt;/div&gt;&lt;div&gt;player 1 losses = 0&lt;/div&gt;&lt;div&gt;player 2 losses = 0&lt;/div&gt;&lt;div&gt;player 3 losses = 0&lt;/div&gt;&lt;div&gt;game running = 0&amp;nbsp;&lt;/div&gt;&lt;div&gt;SENTINEL = 0&lt;/div&gt;" style="whiteSpace=wrap;html=1;aspect=fixed;" vertex="1" parent="1">
          <mxGeometry x="20" y="90" width="170" height="170" as="geometry" />
        </mxCell>
        <mxCell id="uVN40vrKhelWlKV7v6ry-7" value="" style="edgeStyle=orthogonalEdgeStyle;rounded=0;orthogonalLoop=1;jettySize=auto;html=1;" edge="1" parent="1" source="uVN40vrKhelWlKV7v6ry-4" target="uVN40vrKhelWlKV7v6ry-6">
          <mxGeometry relative="1" as="geometry" />
        </mxCell>
        <mxCell id="uVN40vrKhelWlKV7v6ry-4" value="output program explanation" style="shape=parallelogram;perimeter=parallelogramPerimeter;whiteSpace=wrap;html=1;fixedSize=1;" vertex="1" parent="1">
          <mxGeometry x="45" y="290" width="120" height="60" as="geometry" />
        </mxCell>
        <mxCell id="uVN40vrKhelWlKV7v6ry-9" value="" style="edgeStyle=orthogonalEdgeStyle;rounded=0;orthogonalLoop=1;jettySize=auto;html=1;" edge="1" parent="1" source="uVN40vrKhelWlKV7v6ry-6" target="uVN40vrKhelWlKV7v6ry-8">
          <mxGeometry relative="1" as="geometry" />
        </mxCell>
        <mxCell id="uVN40vrKhelWlKV7v6ry-6" value="if sentinel does not equal 1" style="rhombus;whiteSpace=wrap;html=1;" vertex="1" parent="1">
          <mxGeometry x="200" y="80" width="80" height="80" as="geometry" />
        </mxCell>
        <mxCell id="uVN40vrKhelWlKV7v6ry-17" value="" style="edgeStyle=orthogonalEdgeStyle;rounded=0;orthogonalLoop=1;jettySize=auto;html=1;" edge="1" parent="1" source="uVN40vrKhelWlKV7v6ry-8" target="uVN40vrKhelWlKV7v6ry-16">
          <mxGeometry relative="1" as="geometry" />
        </mxCell>
        <mxCell id="uVN40vrKhelWlKV7v6ry-8" value="if times played is greater than 0" style="rhombus;whiteSpace=wrap;html=1;" vertex="1" parent="1">
          <mxGeometry x="300" y="80" width="80" height="80" as="geometry" />
        </mxCell>
        <mxCell id="uVN40vrKhelWlKV7v6ry-10" value="" style="endArrow=none;html=1;rounded=0;entryX=0.5;entryY=1;entryDx=0;entryDy=0;" edge="1" parent="1" target="uVN40vrKhelWlKV7v6ry-8">
          <mxGeometry width="50" height="50" relative="1" as="geometry">
            <mxPoint x="210" y="390" as="sourcePoint" />
            <mxPoint x="350" y="290" as="targetPoint" />
          </mxGeometry>
        </mxCell>
        <mxCell id="uVN40vrKhelWlKV7v6ry-11" value="" style="endArrow=none;html=1;rounded=0;" edge="1" parent="1">
          <mxGeometry width="50" height="50" relative="1" as="geometry">
            <mxPoint x="210" y="390" as="sourcePoint" />
            <mxPoint x="50" y="390" as="targetPoint" />
          </mxGeometry>
        </mxCell>
        <mxCell id="uVN40vrKhelWlKV7v6ry-12" value="" style="endArrow=classic;html=1;rounded=0;" edge="1" parent="1" target="uVN40vrKhelWlKV7v6ry-14">
          <mxGeometry width="50" height="50" relative="1" as="geometry">
            <mxPoint x="50" y="390" as="sourcePoint" />
            <mxPoint x="50" y="430" as="targetPoint" />
          </mxGeometry>
        </mxCell>
        <mxCell id="uVN40vrKhelWlKV7v6ry-14" value="ask user if they want to play again" style="shape=parallelogram;perimeter=parallelogramPerimeter;whiteSpace=wrap;html=1;fixedSize=1;" vertex="1" parent="1">
          <mxGeometry x="-10" y="440" width="120" height="60" as="geometry" />
        </mxCell>
        <mxCell id="uVN40vrKhelWlKV7v6ry-15" value="" style="endArrow=classic;html=1;rounded=0;exitX=1;exitY=0.5;exitDx=0;exitDy=0;entryX=0;entryY=0.5;entryDx=0;entryDy=0;" edge="1" parent="1" source="uVN40vrKhelWlKV7v6ry-14" target="uVN40vrKhelWlKV7v6ry-16">
          <mxGeometry width="50" height="50" relative="1" as="geometry">
            <mxPoint x="270" y="540" as="sourcePoint" />
            <mxPoint x="410" y="150" as="targetPoint" />
            <Array as="points">
              <mxPoint x="220" y="400" />
            </Array>
          </mxGeometry>
        </mxCell>
        <mxCell id="uVN40vrKhelWlKV7v6ry-19" value="" style="edgeStyle=orthogonalEdgeStyle;rounded=0;orthogonalLoop=1;jettySize=auto;html=1;" edge="1" parent="1" source="uVN40vrKhelWlKV7v6ry-16" target="uVN40vrKhelWlKV7v6ry-18">
          <mxGeometry relative="1" as="geometry" />
        </mxCell>
        <mxCell id="uVN40vrKhelWlKV7v6ry-16" value="ask player for number of players" style="shape=parallelogram;perimeter=parallelogramPerimeter;whiteSpace=wrap;html=1;fixedSize=1;" vertex="1" parent="1">
          <mxGeometry x="414" y="90" width="120" height="60" as="geometry" />
        </mxCell>
        <mxCell id="uVN40vrKhelWlKV7v6ry-21" value="" style="edgeStyle=orthogonalEdgeStyle;rounded=0;orthogonalLoop=1;jettySize=auto;html=1;" edge="1" parent="1" source="uVN40vrKhelWlKV7v6ry-18" target="uVN40vrKhelWlKV7v6ry-22">
          <mxGeometry relative="1" as="geometry">
            <mxPoint x="610" y="230" as="targetPoint" />
          </mxGeometry>
        </mxCell>
        <mxCell id="uVN40vrKhelWlKV7v6ry-18" value="ask player for number of sticks" style="shape=parallelogram;perimeter=parallelogramPerimeter;whiteSpace=wrap;html=1;fixedSize=1;" vertex="1" parent="1">
          <mxGeometry x="550" y="90" width="120" height="60" as="geometry" />
        </mxCell>
        <mxCell id="uVN40vrKhelWlKV7v6ry-24" value="" style="edgeStyle=orthogonalEdgeStyle;rounded=0;orthogonalLoop=1;jettySize=auto;html=1;" edge="1" parent="1" source="uVN40vrKhelWlKV7v6ry-22" target="uVN40vrKhelWlKV7v6ry-23">
          <mxGeometry relative="1" as="geometry" />
        </mxCell>
        <mxCell id="uVN40vrKhelWlKV7v6ry-22" value="if game running does not equal 0" style="rhombus;whiteSpace=wrap;html=1;" vertex="1" parent="1">
          <mxGeometry x="720" y="160" width="80" height="80" as="geometry" />
        </mxCell>
        <mxCell id="uVN40vrKhelWlKV7v6ry-28" value="" style="edgeStyle=orthogonalEdgeStyle;rounded=0;orthogonalLoop=1;jettySize=auto;html=1;" edge="1" parent="1" source="uVN40vrKhelWlKV7v6ry-23" target="uVN40vrKhelWlKV7v6ry-27">
          <mxGeometry relative="1" as="geometry" />
        </mxCell>
        <mxCell id="uVN40vrKhelWlKV7v6ry-23" value="ask player 1 how many sticks they wish to remove" style="shape=parallelogram;perimeter=parallelogramPerimeter;whiteSpace=wrap;html=1;fixedSize=1;" vertex="1" parent="1">
          <mxGeometry x="570" y="180" width="120" height="60" as="geometry" />
        </mxCell>
        <mxCell id="uVN40vrKhelWlKV7v6ry-30" value="" style="edgeStyle=orthogonalEdgeStyle;rounded=0;orthogonalLoop=1;jettySize=auto;html=1;" edge="1" parent="1" source="uVN40vrKhelWlKV7v6ry-27" target="uVN40vrKhelWlKV7v6ry-29">
          <mxGeometry relative="1" as="geometry" />
        </mxCell>
        <mxCell id="uVN40vrKhelWlKV7v6ry-27" value="subtract player 1 sticks from total sticks" style="whiteSpace=wrap;html=1;" vertex="1" parent="1">
          <mxGeometry x="414" y="180" width="120" height="60" as="geometry" />
        </mxCell>
        <mxCell id="uVN40vrKhelWlKV7v6ry-32" value="" style="edgeStyle=orthogonalEdgeStyle;rounded=0;orthogonalLoop=1;jettySize=auto;html=1;" edge="1" parent="1" source="uVN40vrKhelWlKV7v6ry-29" target="uVN40vrKhelWlKV7v6ry-31">
          <mxGeometry relative="1" as="geometry" />
        </mxCell>
        <mxCell id="uVN40vrKhelWlKV7v6ry-29" value="are there more than 0 sticks left for player 1?" style="rhombus;whiteSpace=wrap;html=1;" vertex="1" parent="1">
          <mxGeometry x="414" y="270" width="80" height="80" as="geometry" />
        </mxCell>
        <mxCell id="uVN40vrKhelWlKV7v6ry-34" value="" style="edgeStyle=orthogonalEdgeStyle;rounded=0;orthogonalLoop=1;jettySize=auto;html=1;" edge="1" parent="1" source="uVN40vrKhelWlKV7v6ry-31" target="uVN40vrKhelWlKV7v6ry-33">
          <mxGeometry relative="1" as="geometry" />
        </mxCell>
        <mxCell id="uVN40vrKhelWlKV7v6ry-41" value="" style="edgeStyle=orthogonalEdgeStyle;rounded=0;orthogonalLoop=1;jettySize=auto;html=1;" edge="1" parent="1" source="uVN40vrKhelWlKV7v6ry-31" target="uVN40vrKhelWlKV7v6ry-40">
          <mxGeometry relative="1" as="geometry" />
        </mxCell>
        <mxCell id="uVN40vrKhelWlKV7v6ry-31" value="is player 2 playing?" style="rhombus;whiteSpace=wrap;html=1;" vertex="1" parent="1">
          <mxGeometry x="534" y="270" width="80" height="80" as="geometry" />
        </mxCell>
        <mxCell id="uVN40vrKhelWlKV7v6ry-36" value="" style="edgeStyle=orthogonalEdgeStyle;rounded=0;orthogonalLoop=1;jettySize=auto;html=1;" edge="1" parent="1" source="uVN40vrKhelWlKV7v6ry-33" target="uVN40vrKhelWlKV7v6ry-35">
          <mxGeometry relative="1" as="geometry" />
        </mxCell>
        <mxCell id="uVN40vrKhelWlKV7v6ry-33" value="ask player 2 how many sticks they wish to remove" style="shape=parallelogram;perimeter=parallelogramPerimeter;whiteSpace=wrap;html=1;fixedSize=1;" vertex="1" parent="1">
          <mxGeometry x="680" y="280" width="120" height="60" as="geometry" />
        </mxCell>
        <mxCell id="uVN40vrKhelWlKV7v6ry-39" value="" style="edgeStyle=orthogonalEdgeStyle;rounded=0;orthogonalLoop=1;jettySize=auto;html=1;" edge="1" parent="1" source="uVN40vrKhelWlKV7v6ry-35" target="uVN40vrKhelWlKV7v6ry-38">
          <mxGeometry relative="1" as="geometry" />
        </mxCell>
        <mxCell id="uVN40vrKhelWlKV7v6ry-35" value="subtract player 2 sticks from total sticks&amp;nbsp;" style="whiteSpace=wrap;html=1;" vertex="1" parent="1">
          <mxGeometry x="680" y="370" width="120" height="60" as="geometry" />
        </mxCell>
        <mxCell id="uVN40vrKhelWlKV7v6ry-42" value="" style="edgeStyle=orthogonalEdgeStyle;rounded=0;orthogonalLoop=1;jettySize=auto;html=1;" edge="1" parent="1" source="uVN40vrKhelWlKV7v6ry-38" target="uVN40vrKhelWlKV7v6ry-40">
          <mxGeometry relative="1" as="geometry" />
        </mxCell>
        <mxCell id="uVN40vrKhelWlKV7v6ry-38" value="are there more than 0 sticks left for player 2?" style="rhombus;whiteSpace=wrap;html=1;" vertex="1" parent="1">
          <mxGeometry x="434" y="360" width="80" height="80" as="geometry" />
        </mxCell>
        <mxCell id="uVN40vrKhelWlKV7v6ry-44" value="" style="edgeStyle=orthogonalEdgeStyle;rounded=0;orthogonalLoop=1;jettySize=auto;html=1;" edge="1" parent="1" source="uVN40vrKhelWlKV7v6ry-40" target="uVN40vrKhelWlKV7v6ry-43">
          <mxGeometry relative="1" as="geometry" />
        </mxCell>
        <mxCell id="uVN40vrKhelWlKV7v6ry-40" value="computer player subtracts generated number of sticks from total sticks" style="whiteSpace=wrap;html=1;" vertex="1" parent="1">
          <mxGeometry x="470" y="510" width="120" height="60" as="geometry" />
        </mxCell>
        <mxCell id="uVN40vrKhelWlKV7v6ry-43" value="are there more than 0 sticks left for player 3?" style="rhombus;whiteSpace=wrap;html=1;" vertex="1" parent="1">
          <mxGeometry x="670" y="500" width="80" height="80" as="geometry" />
        </mxCell>
        <mxCell id="uVN40vrKhelWlKV7v6ry-47" value="" style="endArrow=classic;html=1;rounded=0;entryX=0.5;entryY=1;entryDx=0;entryDy=0;" edge="1" parent="1" source="uVN40vrKhelWlKV7v6ry-43" target="uVN40vrKhelWlKV7v6ry-23">
          <mxGeometry width="50" height="50" relative="1" as="geometry">
            <mxPoint x="560" y="470" as="sourcePoint" />
            <mxPoint x="610" y="420" as="targetPoint" />
            <Array as="points">
              <mxPoint x="630" y="460" />
            </Array>
          </mxGeometry>
        </mxCell>
        <mxCell id="uVN40vrKhelWlKV7v6ry-48" value="" style="endArrow=classic;html=1;rounded=0;exitX=0;exitY=0.5;exitDx=0;exitDy=0;" edge="1" parent="1" source="uVN40vrKhelWlKV7v6ry-29" target="uVN40vrKhelWlKV7v6ry-49">
          <mxGeometry width="50" height="50" relative="1" as="geometry">
            <mxPoint x="470" y="570" as="sourcePoint" />
            <mxPoint x="360" y="420" as="targetPoint" />
          </mxGeometry>
        </mxCell>
        <mxCell id="uVN40vrKhelWlKV7v6ry-49" value="output player 1 loses" style="shape=parallelogram;perimeter=parallelogramPerimeter;whiteSpace=wrap;html=1;fixedSize=1;" vertex="1" parent="1">
          <mxGeometry x="260" y="360" width="120" height="60" as="geometry" />
        </mxCell>
        <mxCell id="uVN40vrKhelWlKV7v6ry-50" value="output player 2 loses" style="shape=parallelogram;perimeter=parallelogramPerimeter;whiteSpace=wrap;html=1;fixedSize=1;" vertex="1" parent="1">
          <mxGeometry x="310" y="450" width="120" height="60" as="geometry" />
        </mxCell>
        <mxCell id="uVN40vrKhelWlKV7v6ry-51" value="" style="endArrow=classic;html=1;rounded=0;entryX=0.5;entryY=0;entryDx=0;entryDy=0;exitX=0;exitY=0.5;exitDx=0;exitDy=0;" edge="1" parent="1" source="uVN40vrKhelWlKV7v6ry-38" target="uVN40vrKhelWlKV7v6ry-50">
          <mxGeometry width="50" height="50" relative="1" as="geometry">
            <mxPoint x="470" y="570" as="sourcePoint" />
            <mxPoint x="520" y="520" as="targetPoint" />
          </mxGeometry>
        </mxCell>
        <mxCell id="uVN40vrKhelWlKV7v6ry-52" value="output player 3 loses&amp;nbsp;" style="shape=parallelogram;perimeter=parallelogramPerimeter;whiteSpace=wrap;html=1;fixedSize=1;" vertex="1" parent="1">
          <mxGeometry x="394" y="620" width="120" height="60" as="geometry" />
        </mxCell>
        <mxCell id="uVN40vrKhelWlKV7v6ry-54" value="" style="endArrow=classic;html=1;rounded=0;exitX=0.5;exitY=1;exitDx=0;exitDy=0;entryX=0.992;entryY=0.467;entryDx=0;entryDy=0;entryPerimeter=0;" edge="1" parent="1" source="uVN40vrKhelWlKV7v6ry-43" target="uVN40vrKhelWlKV7v6ry-52">
          <mxGeometry width="50" height="50" relative="1" as="geometry">
            <mxPoint x="470" y="570" as="sourcePoint" />
            <mxPoint x="520" y="520" as="targetPoint" />
          </mxGeometry>
        </mxCell>
        <mxCell id="uVN40vrKhelWlKV7v6ry-55" value="add 1 to player 1 losses, add 1 to game running, add 1 to times played, break loop" style="whiteSpace=wrap;html=1;aspect=fixed;" vertex="1" parent="1">
          <mxGeometry x="140" y="450" width="90" height="90" as="geometry" />
        </mxCell>
        <mxCell id="uVN40vrKhelWlKV7v6ry-56" value="" style="endArrow=classic;html=1;rounded=0;exitX=0;exitY=1;exitDx=0;exitDy=0;entryX=1;entryY=0.5;entryDx=0;entryDy=0;" edge="1" parent="1" source="uVN40vrKhelWlKV7v6ry-49" target="uVN40vrKhelWlKV7v6ry-55">
          <mxGeometry width="50" height="50" relative="1" as="geometry">
            <mxPoint x="280" y="690" as="sourcePoint" />
            <mxPoint x="330" y="640" as="targetPoint" />
          </mxGeometry>
        </mxCell>
        <mxCell id="uVN40vrKhelWlKV7v6ry-57" value="add 1 to player 2 losses, add 1 to game running, add 1 to times played, break loop" style="whiteSpace=wrap;html=1;aspect=fixed;" vertex="1" parent="1">
          <mxGeometry x="210" y="560" width="90" height="90" as="geometry" />
        </mxCell>
        <mxCell id="uVN40vrKhelWlKV7v6ry-59" value="" style="endArrow=classic;html=1;rounded=0;exitX=0;exitY=1;exitDx=0;exitDy=0;entryX=0.5;entryY=0;entryDx=0;entryDy=0;" edge="1" parent="1" source="uVN40vrKhelWlKV7v6ry-50" target="uVN40vrKhelWlKV7v6ry-57">
          <mxGeometry width="50" height="50" relative="1" as="geometry">
            <mxPoint x="280" y="690" as="sourcePoint" />
            <mxPoint x="330" y="640" as="targetPoint" />
          </mxGeometry>
        </mxCell>
        <mxCell id="uVN40vrKhelWlKV7v6ry-60" value="add 1 to player 3 losses, add 1 to game running, add 1 to times played, break loop" style="whiteSpace=wrap;html=1;aspect=fixed;" vertex="1" parent="1">
          <mxGeometry x="230" y="700" width="110" height="110" as="geometry" />
        </mxCell>
        <mxCell id="uVN40vrKhelWlKV7v6ry-61" value="" style="endArrow=classic;html=1;rounded=0;exitX=0;exitY=1;exitDx=0;exitDy=0;entryX=1.037;entryY=0.417;entryDx=0;entryDy=0;entryPerimeter=0;" edge="1" parent="1" source="uVN40vrKhelWlKV7v6ry-52" target="uVN40vrKhelWlKV7v6ry-60">
          <mxGeometry width="50" height="50" relative="1" as="geometry">
            <mxPoint x="300" y="760" as="sourcePoint" />
            <mxPoint x="350" y="710" as="targetPoint" />
          </mxGeometry>
        </mxCell>
        <mxCell id="uVN40vrKhelWlKV7v6ry-62" value="" style="endArrow=classic;html=1;rounded=0;entryX=0.853;entryY=1.011;entryDx=0;entryDy=0;entryPerimeter=0;exitX=-0.056;exitY=0.607;exitDx=0;exitDy=0;exitPerimeter=0;" edge="1" parent="1" source="uVN40vrKhelWlKV7v6ry-55" target="uVN40vrKhelWlKV7v6ry-14">
          <mxGeometry width="50" height="50" relative="1" as="geometry">
            <mxPoint x="190" y="740" as="sourcePoint" />
            <mxPoint x="240" y="690" as="targetPoint" />
          </mxGeometry>
        </mxCell>
        <mxCell id="uVN40vrKhelWlKV7v6ry-63" value="" style="endArrow=classic;html=1;rounded=0;exitX=0;exitY=0.5;exitDx=0;exitDy=0;entryX=0.853;entryY=1.1;entryDx=0;entryDy=0;entryPerimeter=0;" edge="1" parent="1" source="uVN40vrKhelWlKV7v6ry-57" target="uVN40vrKhelWlKV7v6ry-14">
          <mxGeometry width="50" height="50" relative="1" as="geometry">
            <mxPoint x="190" y="740" as="sourcePoint" />
            <mxPoint x="240" y="690" as="targetPoint" />
          </mxGeometry>
        </mxCell>
        <mxCell id="uVN40vrKhelWlKV7v6ry-64" value="" style="endArrow=classic;html=1;rounded=0;exitX=0;exitY=0.25;exitDx=0;exitDy=0;entryX=0.833;entryY=1;entryDx=0;entryDy=0;entryPerimeter=0;" edge="1" parent="1" source="uVN40vrKhelWlKV7v6ry-60" target="uVN40vrKhelWlKV7v6ry-14">
          <mxGeometry width="50" height="50" relative="1" as="geometry">
            <mxPoint x="190" y="740" as="sourcePoint" />
            <mxPoint x="240" y="690" as="targetPoint" />
          </mxGeometry>
        </mxCell>
        <mxCell id="uVN40vrKhelWlKV7v6ry-65" value="" style="endArrow=classic;html=1;rounded=0;exitX=0.347;exitY=1.033;exitDx=0;exitDy=0;exitPerimeter=0;" edge="1" parent="1" source="uVN40vrKhelWlKV7v6ry-14">
          <mxGeometry width="50" height="50" relative="1" as="geometry">
            <mxPoint x="190" y="740" as="sourcePoint" />
            <mxPoint x="32" y="620" as="targetPoint" />
          </mxGeometry>
        </mxCell>
        <mxCell id="uVN40vrKhelWlKV7v6ry-68" value="" style="edgeStyle=orthogonalEdgeStyle;rounded=0;orthogonalLoop=1;jettySize=auto;html=1;" edge="1" parent="1" source="uVN40vrKhelWlKV7v6ry-66" target="uVN40vrKhelWlKV7v6ry-67">
          <mxGeometry relative="1" as="geometry" />
        </mxCell>
        <mxCell id="uVN40vrKhelWlKV7v6ry-66" value="output total player 1 losses, output total player 2 losses, output total player 3 losses, output total times played" style="shape=parallelogram;perimeter=parallelogramPerimeter;whiteSpace=wrap;html=1;fixedSize=1;" vertex="1" parent="1">
          <mxGeometry y="620" width="150" height="90" as="geometry" />
        </mxCell>
        <mxCell id="uVN40vrKhelWlKV7v6ry-67" value="" style="ellipse;whiteSpace=wrap;html=1;" vertex="1" parent="1">
          <mxGeometry x="35" y="920" width="80" height="45" as="geometry" />
        </mxCell>
      </root>
    </mxGraphModel>
  </diagram>
</mxfile>
